<svg xmlns="http://www.w3.org/2000/svg" width="512" height="512" viewBox="0 0 512 512" version="1.1">
	<path d="M 275.419 23.311 C 275.331 30.031, 273.719 34.072, 269.582 37.937 L 266.974 40.373 268.105 37.128 C 269.519 33.073, 268.614 27.088, 265.766 21.658 L 263.585 17.500 262.863 23.664 C 261.931 31.612, 260.111 34.999, 254.931 38.427 L 250.731 41.206 251.394 38.566 C 251.968 36.278, 251.129 31.040, 249.381 26 C 249.086 25.149, 247.917 27.253, 246.680 30.862 C 245.481 34.361, 244.052 37.286, 243.504 37.362 C 241.791 37.600, 240.558 29.107, 241.691 24.865 C 242.934 20.206, 242.133 20.021, 238.115 24.039 C 234.802 27.352, 233.443 32.181, 234.314 37.548 L 234.872 40.985 231.848 39.422 C 228.525 37.703, 224.427 29.937, 225.444 27.286 C 225.943 25.984, 225.787 25.932, 224.530 26.975 C 221.808 29.234, 220.754 35.475, 222.420 39.463 C 223.233 41.409, 223.674 43, 223.399 43 C 221.749 43, 216.898 39.641, 215.135 37.278 L 213.063 34.500 213.038 37 C 213.024 38.375, 213.693 40.804, 214.524 42.399 C 215.355 43.993, 215.877 45.456, 215.683 45.651 C 215.489 45.845, 213.231 45.372, 210.665 44.600 C 206.068 43.216, 204.955 43.555, 207.087 45.687 C 208.356 46.956, 207.873 47.304, 202.500 48.999 C 200.300 49.693, 198.015 50.643, 197.421 51.111 C 196.828 51.578, 193.312 53.101, 189.608 54.496 C 171.422 61.341, 166.749 65.897, 161.513 81.886 C 159.133 89.152, 154.204 94.304, 145.629 98.490 C 130.767 105.744, 124.993 105.929, 110.270 99.620 C 87.411 89.824, 77.200 89.289, 50.660 96.497 C 28.856 102.419, 10.411 112.764, 7.007 120.982 C 5.361 124.958, 6.160 131.633, 8.981 137.460 C 10.216 140.012, 15.390 146.498, 20.478 151.874 C 30.444 162.403, 31.218 163.918, 33.045 176.478 C 36.050 197.133, 41.099 204.882, 54 208.639 C 57.025 209.520, 62.425 212.156, 66 214.496 C 76.388 221.296, 78.755 222.207, 87.437 222.738 C 97.855 223.376, 102.560 222.024, 109.158 216.498 C 112.096 214.037, 118.100 209.744, 122.500 206.958 C 131.304 201.383, 134.302 201.056, 138.703 205.191 C 142.169 208.447, 142.986 213.048, 143.019 229.500 C 143.035 237.750, 143.513 246.512, 144.079 248.972 C 145.826 256.551, 150.560 265.122, 157.905 274 C 177.957 298.239, 179.667 303.982, 177.560 340 C 176.641 355.710, 177.805 363.109, 182.160 369.224 C 184.537 372.564, 190.625 376.170, 197.781 378.478 C 206.264 381.214, 208.312 383.593, 211.918 394.897 C 213.660 400.358, 215.697 405.333, 216.443 405.953 C 217.189 406.572, 220.658 407.527, 224.150 408.074 C 236.555 410.018, 238.591 411.522, 239.916 419.719 C 240.513 423.415, 240.662 423.529, 246.514 424.785 C 253.680 426.322, 268.473 425.665, 273.444 423.588 C 276.130 422.465, 277.142 421.259, 278.113 418.018 C 279.617 412.998, 284.059 409, 288.134 409 C 293.518 409, 300 406.815, 301.943 404.345 C 302.983 403.023, 304.150 400.042, 304.537 397.721 C 305.533 391.734, 308.736 383.537, 310.771 381.770 C 311.722 380.944, 315.105 379.465, 318.290 378.484 C 337.598 372.537, 343.137 360.896, 339.456 334 C 337.425 319.157, 337.875 303.833, 340.542 297 C 341.509 294.525, 346.453 286.650, 351.530 279.500 C 367.175 257.466, 368.866 252.765, 369.875 228.500 C 370.431 215.122, 370.960 210.791, 372.357 208.171 C 374.332 204.469, 379.986 201.529, 383.457 202.400 C 385.907 203.015, 397.691 211.573, 403 216.593 C 408.104 221.419, 412.729 223.001, 421.718 222.994 C 432.101 222.987, 435.532 221.885, 443.645 215.948 C 448.425 212.450, 452.770 210.268, 458 208.740 C 471.273 204.862, 476.021 197.822, 479.919 176.241 C 480.985 170.333, 482.190 164.600, 482.594 163.500 C 482.999 162.400, 486.866 157.788, 491.186 153.252 C 500.738 143.223, 504.541 137.411, 506.094 130.471 C 507.168 125.669, 507.073 124.783, 505.031 120.563 C 501.180 112.608, 489.277 105.279, 470.185 99.105 C 450.686 92.801, 432.295 90.474, 422.500 93.072 C 420.300 93.656, 413.325 96.238, 407 98.811 C 396.435 103.108, 394.809 103.488, 387 103.494 C 379.043 103.500, 377.957 103.234, 370 99.326 C 358.898 93.874, 354.850 89.572, 352.553 80.786 C 350.494 72.910, 346.572 66.301, 341.796 62.658 C 338.653 60.261, 324.862 53.372, 315.641 49.592 C 312.853 48.450, 311.949 47.577, 312.383 46.445 C 312.896 45.106, 312.311 44.981, 308.332 45.577 C 304.037 46.221, 303.740 46.130, 304.454 44.388 C 305.947 40.743, 306.220 39.015, 305.570 37.321 C 305.024 35.898, 304.595 36.136, 303.007 38.748 C 301.958 40.472, 300.290 41.871, 299.300 41.855 C 298.310 41.840, 296.489 42.144, 295.253 42.530 C 293.016 43.229, 293.013 43.214, 294.584 39.454 C 296.311 35.320, 295.890 30.557, 293.519 27.424 C 292.108 25.558, 292.063 25.569, 292.032 27.782 C 291.965 32.548, 289.337 36.624, 284.924 38.808 C 282.551 39.982, 280.464 40.797, 280.287 40.620 C 280.109 40.443, 280.645 38.993, 281.476 37.399 C 284.370 31.849, 282.772 23.814, 277.879 19.311 L 275.500 17.122 275.419 23.311 M 230.400 60.836 C 222.257 66.757, 217.166 74.399, 216.966 81 C 216.940 81.825, 216.208 81.185, 215.338 79.578 C 214.163 77.408, 213.882 74.896, 214.245 69.816 C 214.678 63.767, 214.558 63.121, 213.209 64.238 C 211.186 65.911, 208.050 72.909, 208.022 75.809 C 208.008 77.261, 207.583 77.860, 206.875 77.423 C 206.138 76.967, 205.920 74.365, 206.242 69.864 C 206.512 66.089, 206.333 63, 205.844 63 C 204.306 63, 199.050 72.194, 198.455 75.927 C 198.141 77.892, 197.649 80.625, 197.361 81.999 L 196.837 84.498 195.477 81.999 C 194.729 80.625, 193.815 77.145, 193.445 74.266 L 192.774 69.033 188.937 71.766 C 183.245 75.822, 182.314 78.088, 183.996 83.798 C 186.387 91.913, 185.898 93.923, 179.094 103.942 C 170.653 116.370, 169.049 120.167, 169.022 127.782 C 168.993 135.946, 170.889 140.269, 177.449 147 C 181.718 151.381, 182.955 153.405, 183.526 156.948 C 184.227 161.296, 184.886 162.156, 192.693 168.914 C 194.670 170.626, 196.148 174.668, 199.886 188.589 C 201.421 194.306, 206.468 200.880, 210.670 202.636 C 212.620 203.450, 214.456 203.878, 214.748 203.585 C 215.041 203.292, 213.642 201.240, 211.640 199.024 C 208.296 195.322, 208.009 194.527, 208.116 189.247 C 208.180 186.086, 208.422 184.400, 208.655 185.500 C 208.888 186.600, 209.292 188.505, 209.554 189.733 C 209.816 190.962, 212 194.186, 214.409 196.898 C 217.296 200.148, 219.886 204.670, 222.007 210.164 L 225.226 218.500 224.107 228.500 C 223.491 234, 222.539 242.595, 221.992 247.600 C 220.758 258.875, 218.630 265.161, 211.616 278.253 C 203.895 292.665, 199.173 304.117, 196.879 314 C 195.793 318.675, 193.979 326.286, 192.847 330.912 C 190.540 340.345, 191.023 345.534, 195.089 354.986 C 199.574 365.412, 213.946 375.171, 222.463 373.573 C 225.922 372.924, 227 371.488, 227 367.530 C 227 365.663, 227.703 365.091, 230.679 364.532 C 238.393 363.085, 244.741 352.616, 241.966 345.917 L 240.646 342.730 238.475 347.648 C 235.686 353.968, 230.980 358, 226.391 358 C 211.315 358, 201.463 336.845, 209.321 321.349 C 210.758 318.515, 213.102 315.279, 214.529 314.156 C 220.729 309.279, 228.773 309, 233.014 313.515 L 235.349 316 232.424 316.022 C 227.771 316.057, 221.311 319.498, 219.566 322.872 C 216.782 328.255, 218.181 337.956, 222.039 340.021 C 226.739 342.536, 228.049 340.544, 225.796 334.311 C 224.779 331.499, 224.841 330.731, 226.193 329.379 C 227.557 328.014, 228.341 327.957, 231.483 328.994 C 239.213 331.546, 245.152 339.160, 246.518 348.273 L 247.227 353 259.114 353 L 271 353 271.022 348.250 C 271.065 339.046, 277.582 330.267, 286.070 327.981 C 293.146 326.076, 297.185 330.436, 293.378 335.870 C 291.909 337.969, 291.903 338.331, 293.318 339.747 C 294.734 341.162, 295.115 341.155, 297.393 339.662 C 298.938 338.649, 300.160 336.667, 300.563 334.514 C 302.293 325.293, 294.721 316, 285.476 316 C 282.569 316, 281.917 315.654, 282.177 314.250 C 282.649 311.692, 289.360 308.700, 292.888 309.475 C 294.481 309.825, 297.839 311.415, 300.351 313.008 C 309.659 318.910, 313.799 334.622, 308.992 345.797 C 305.348 354.267, 297.378 359.524, 291.169 357.554 C 285.400 355.723, 279.800 347.629, 279.800 341.120 C 279.800 337.833, 279.691 337.702, 278.413 339.450 C 276.505 342.059, 275.647 347.305, 276.438 351.521 C 277.396 356.629, 282.311 361.734, 287.854 363.379 C 292.264 364.688, 292.486 364.926, 292.223 368.053 C 291.907 371.799, 293.157 372.965, 297.500 372.979 C 309.714 373.019, 321.108 360.997, 324.065 344.952 C 325.078 339.452, 325.009 337.148, 323.622 330.303 C 320.760 316.180, 317.281 307.448, 305.954 285.957 C 298.542 271.894, 294.321 262.655, 293.076 257.769 C 290.703 248.452, 288.578 226.789, 289.246 218.735 C 289.882 211.070, 293.877 201.756, 298.613 196.893 C 300.546 194.909, 302.743 191.309, 303.496 188.893 C 304.804 184.699, 304.869 184.644, 304.933 187.685 C 305.027 192.156, 303.389 195.970, 299.757 199.735 C 295.862 203.773, 296.948 205.158, 301.821 202.367 C 306.466 199.706, 311.277 193.526, 313.540 187.311 C 318.014 175.025, 320.358 170.886, 325.089 166.925 C 329.154 163.522, 330.041 162.121, 330.972 157.633 C 331.839 153.458, 332.995 151.440, 336.477 148.023 C 342.134 142.471, 345.200 135.416, 345.200 127.952 C 345.200 120.930, 342.771 115.134, 336.005 106.006 C 333.258 102.301, 330.320 97.617, 329.476 95.596 C 328.047 92.177, 328.081 91.604, 329.970 87.334 C 332.992 80.503, 332.637 78.281, 327.811 73.826 C 325.508 71.699, 323.219 70.094, 322.725 70.258 C 322.231 70.423, 320.968 72.995, 319.919 75.973 C 317.308 83.388, 316 84.454, 316 79.168 C 316 74.213, 314.200 69.687, 310.565 65.500 L 307.961 62.500 308.562 66.091 C 308.892 68.066, 308.624 71.666, 307.965 74.091 L 306.767 78.500 305.133 73.412 C 303.751 69.104, 300.066 62.994, 298.856 63.002 C 298.660 63.004, 298.500 66.363, 298.500 70.468 C 298.500 76.244, 298.104 78.327, 296.750 79.680 C 295.084 81.345, 295 81.273, 295 78.174 C 295 72.341, 290.368 65.562, 283.027 60.653 C 281.668 59.744, 280.238 59, 279.851 59 C 279.463 59, 278.013 61.362, 276.628 64.250 C 274.283 69.137, 261.510 83.844, 260.494 82.827 C 260.243 82.576, 261.343 79.250, 262.939 75.436 C 264.534 71.621, 266.133 66.700, 266.492 64.500 L 267.145 60.500 265.071 63 C 263.930 64.375, 261.803 67.896, 260.344 70.824 L 257.693 76.148 256.548 72.818 C 255.918 70.986, 254.187 67.698, 252.702 65.511 L 250 61.536 250 65.179 C 250 67.182, 250.894 71.674, 251.987 75.161 C 253.080 78.647, 253.980 81.604, 253.987 81.730 C 253.994 81.857, 250.639 78.482, 246.531 74.230 C 242.423 69.979, 238.260 64.589, 237.281 62.254 C 236.301 59.918, 235.230 58.006, 234.900 58.004 C 234.570 58.002, 232.545 59.276, 230.400 60.836 M 62.500 106.735 C 60.300 106.954, 58.152 107.474, 57.726 107.890 C 56.691 108.903, 62.731 113.851, 86.224 131.234 C 109.095 148.156, 114.748 151.262, 123.714 151.833 C 129.874 152.225, 130.089 152.335, 132.613 156.367 C 134.036 158.640, 134.855 159.600, 134.435 158.500 C 134.014 157.400, 131.759 151.047, 129.423 144.382 C 127.087 137.718, 124.262 130.474, 123.146 128.285 C 118.811 119.788, 104.511 109.738, 92.972 107.079 C 88.697 106.094, 70.941 105.894, 62.500 106.735 M 420.746 107.086 C 412.672 108.989, 402.503 115.575, 397.055 122.430 C 394.192 126.033, 393.986 126.962, 392.400 143.404 L 391.734 150.308 396.617 149.652 C 404.073 148.650, 412.535 143.942, 423 134.970 C 428.225 130.491, 436.550 123.762, 441.500 120.015 C 446.450 116.269, 451.536 112.091, 452.803 110.731 L 455.105 108.259 447.512 107.129 C 438.744 105.825, 426.181 105.805, 420.746 107.086 M 26 127.582 C 26 128.974, 32.478 142.750, 35.320 147.403 C 38.897 153.258, 55.600 174.459, 59.130 177.625 C 60.434 178.794, 62.625 180.313, 64 181 C 66.355 182.178, 66.322 182.055, 63.427 178.875 C 60.197 175.327, 48.381 160.307, 43.466 153.500 C 41.165 150.314, 42.096 150.936, 48.039 156.554 C 52.142 160.433, 58.650 166.132, 62.500 169.218 C 66.350 172.304, 70.625 176.714, 72 179.017 C 76 185.719, 79.509 189.402, 86.122 193.843 C 92.745 198.290, 96.828 199.009, 104.057 197.001 C 110.533 195.202, 115.763 187.085, 113.071 183.012 C 112.245 181.762, 111.558 182.025, 108.794 184.642 C 105.193 188.050, 101.865 190.022, 99.816 189.960 C 99.092 189.938, 99.678 189.280, 101.119 188.497 C 103.542 187.180, 107 181.654, 107 179.099 C 107 177.437, 103.595 177.750, 91.134 180.557 C 84.890 181.964, 79.561 182.894, 79.291 182.625 C 78.614 181.948, 87.418 177.631, 93.601 175.607 C 96.407 174.689, 99.557 173.246, 100.601 172.400 C 102.333 170.997, 101.707 170.911, 93.500 171.425 C 88.550 171.735, 82.025 172.237, 79 172.540 L 73.500 173.092 79 170.087 C 82.025 168.434, 88.325 165.601, 93 163.791 L 101.500 160.500 94.500 160.232 C 89.735 160.050, 84.387 160.724, 77.750 162.343 C 71.232 163.934, 68 164.347, 68 163.591 C 68 162.377, 88.752 151.602, 93.277 150.467 C 94.775 150.091, 96 149.448, 96 149.038 C 96 148.076, 83.229 147.003, 71.599 146.988 C 62.391 146.976, 52.618 145.084, 50.601 142.922 C 49.766 142.027, 50.137 141.891, 52.135 142.361 C 58.041 143.749, 83 138.540, 83 135.918 C 83 135.409, 77.410 135, 70.458 135 C 56.984 135, 47.906 133.550, 35.968 129.489 C 28.641 126.997, 26 126.492, 26 127.582 M 473 130.705 C 463.073 134.115, 461.641 134.336, 446.750 134.760 C 438.087 135.007, 431 135.544, 431 135.953 C 431 136.922, 437.300 139.616, 443 141.084 C 445.475 141.722, 451.722 142.250, 456.882 142.258 C 463.981 142.269, 465.806 142.529, 464.383 143.326 C 460.712 145.380, 451.382 146.969, 442.901 146.984 C 431.850 147.004, 419 148.090, 419 149.004 C 419 149.394, 422.814 151.188, 427.476 152.991 C 432.138 154.793, 438.285 157.804, 441.137 159.682 C 444.633 161.985, 446.550 162.728, 447.022 161.965 C 447.791 160.720, 449 163.006, 449 165.704 C 449 166.996, 448.745 167.033, 447.417 165.931 C 446.546 165.208, 445.083 164.514, 444.167 164.390 C 443.250 164.265, 438.225 163.232, 433 162.094 C 427.775 160.957, 421.475 160.049, 419 160.077 L 414.500 160.128 417.500 161.519 C 419.150 162.284, 424.885 164.794, 430.244 167.095 C 435.603 169.397, 440.553 171.976, 441.244 172.827 C 442.319 174.152, 442.213 174.265, 440.500 173.615 C 439.400 173.197, 435.350 172.651, 431.500 172.401 C 427.650 172.152, 422.107 171.764, 419.182 171.539 C 411.419 170.943, 413.818 172.933, 425.732 176.975 C 435.595 180.321, 437.862 181.471, 436.765 182.568 C 436.087 183.246, 418.012 179.728, 413.685 178.075 C 412.137 177.484, 410.694 177, 410.479 177 C 409.779 177, 412.817 184.792, 414.546 187.430 C 416.779 190.838, 416.131 190.675, 410.891 186.510 C 408.476 184.590, 405.439 183.015, 404.142 183.010 C 402.068 183.001, 401.866 183.332, 402.470 185.750 C 404.302 193.093, 410.222 198.023, 417.151 197.978 C 424.560 197.929, 436.826 189.468, 441.599 181.115 C 444.251 176.475, 471 148.078, 471 149.903 C 471 150.337, 469.313 152.961, 467.250 155.734 C 459.762 165.804, 450.636 177.566, 448.097 180.420 L 445.500 183.341 448.500 181.254 C 457.946 174.684, 478.052 147.956, 483.811 134.315 C 487.498 125.580, 487.713 125.651, 473 130.705 M 47.694 148.639 C 46.895 149.438, 47.798 151, 49.059 151 C 49.577 151, 50 150.325, 50 149.500 C 50 147.954, 48.820 147.513, 47.694 148.639 M 54.609 149.423 C 54.959 150.336, 55.978 150.996, 56.873 150.888 C 57.768 150.781, 59.175 150.965, 60 151.297 C 60.825 151.630, 62.620 152.036, 63.990 152.201 C 67.196 152.586, 68.095 156, 64.990 156 C 62.632 156, 62.710 158.323, 65.083 158.763 C 66.733 159.070, 69.125 154.489, 68.358 152.490 C 68.070 151.740, 65.734 150.621, 63.167 150.004 C 60.600 149.386, 57.481 148.629, 56.236 148.321 C 54.426 147.874, 54.099 148.095, 54.609 149.423 M 454.072 149.088 C 448.931 150.096, 447.073 151.473, 448.682 153.082 C 449.711 154.111, 453.562 152.736, 455.015 150.822 C 455.298 150.449, 456.374 150.224, 457.407 150.322 C 458.440 150.420, 459.483 149.938, 459.726 149.250 C 460.214 147.865, 460.294 147.867, 454.072 149.088 M 462.427 148.765 C 461.039 149.716, 459.822 153, 460.857 153 C 461.294 153, 462.708 151.875, 464 150.500 C 465.617 148.779, 465.905 148.005, 464.924 148.015 C 464.141 148.024, 463.017 148.361, 462.427 148.765 M 51.564 150.293 C 51.940 151.279, 52.499 151.834, 52.807 151.526 C 53.115 151.219, 52.808 150.412, 52.124 149.733 C 51.136 148.753, 51.022 148.868, 51.564 150.293 M 383.947 153.639 C 383.395 155.090, 383.130 156.463, 383.356 156.690 C 383.583 156.917, 384.247 155.729, 384.832 154.051 C 386.133 150.321, 385.348 149.955, 383.947 153.639 M 443.500 152 C 442.687 153.316, 443.891 155.203, 445.254 154.749 C 446.851 154.216, 447.036 151, 445.471 151 C 444.727 151, 443.840 151.450, 443.500 152 M 50 154 C 50 154.550, 50.450 155, 51 155 C 51.550 155, 52 154.550, 52 154 C 52 153.450, 51.550 153, 51 153 C 50.450 153, 50 153.450, 50 154 M 56 156.500 C 56 157.970, 56.574 159, 57.393 159 C 59.308 159, 60.363 155.848, 58.784 154.845 C 56.651 153.492, 56 153.878, 56 156.500 M 456.374 155.467 C 455.340 158.163, 456.466 159.391, 458.295 157.563 C 459.233 156.625, 460 155.439, 460 154.929 C 460 153.422, 456.988 153.869, 456.374 155.467 M 448.029 156.945 C 447.175 158.541, 447.357 159.121, 448.987 159.993 C 450.348 160.721, 451 160.735, 451 160.035 C 451 159.466, 451.480 159, 452.067 159 C 452.709 159, 452.864 159.897, 452.455 161.250 C 451.988 162.797, 452.101 163.188, 452.817 162.500 C 453.390 161.950, 454.179 160.204, 454.570 158.620 C 455.122 156.389, 454.968 155.851, 453.891 156.234 C 453.126 156.507, 451.731 156.335, 450.792 155.852 C 449.538 155.208, 448.804 155.498, 448.029 156.945 M 60 157.941 C 60 158.459, 60.450 159.160, 61 159.500 C 61.550 159.840, 62 159.416, 62 158.559 C 62 157.702, 61.550 157, 61 157 C 60.450 157, 60 157.423, 60 157.941 M 64.079 161.583 C 64.127 162.748, 64.364 162.985, 64.683 162.188 C 64.972 161.466, 64.936 160.603, 64.604 160.271 C 64.272 159.939, 64.036 160.529, 64.079 161.583 M 60 162 C 60 162.550, 60.477 163, 61.059 163 C 61.641 163, 61.840 162.550, 61.500 162 C 61.160 161.450, 60.684 161, 60.441 161 C 60.198 161, 60 161.450, 60 162 M 158.500 163.403 C 156.850 164.131, 154.600 165.750, 153.500 167 L 151.500 169.274 154.700 167.637 C 159.715 165.072, 165.872 165.528, 171.054 168.849 C 176.248 172.177, 177.983 174.051, 180.913 179.500 C 182.242 181.972, 182.818 182.545, 182.420 181 C 181.477 177.338, 176.470 168.789, 173.807 166.294 C 169.319 162.090, 163.825 161.052, 158.500 163.403 M 343.500 163.164 C 338.433 165.960, 332.976 172.736, 331.552 178 C 331.097 179.678, 331.638 179.199, 333.196 176.542 C 338.153 168.087, 348.420 164.060, 356.455 167.417 L 360.350 169.044 358.427 166.920 C 354.333 162.395, 347.850 160.764, 343.500 163.164 M 347 170.408 C 352.246 172.289, 355 177.033, 355 184.188 C 355 195.516, 348.824 202.584, 339.778 201.610 C 337.181 201.330, 334.823 201.477, 334.539 201.937 C 333.495 203.626, 337.269 205.359, 342.143 205.428 C 346.670 205.493, 347.473 205.149, 350.502 201.844 C 354.499 197.485, 355.987 192.706, 355.994 184.200 C 356.003 174.853, 352.076 168.894, 346.027 169.076 C 343.786 169.144, 343.896 169.294, 347 170.408 M 160.299 171.503 C 157.022 173.798, 155.659 179.308, 156.293 187.694 C 156.903 195.760, 158.817 200.037, 163.320 203.393 C 166.702 205.914, 173.836 205.993, 177.563 203.551 C 181.118 201.222, 180.684 199.672, 176.750 200.645 C 169.045 202.551, 164.224 200.860, 159.562 194.615 C 157.916 192.411, 157.500 190.367, 157.500 184.492 C 157.500 177.740, 157.739 176.882, 160.387 174.118 C 162.288 172.133, 164.508 170.973, 166.887 170.720 L 170.500 170.336 166.473 170.168 C 164.245 170.075, 161.486 170.672, 160.299 171.503 M 170.446 178.442 C 168.237 181.813, 168.900 185.415, 171.805 185.827 C 174.896 186.265, 177 184.342, 177 181.078 C 177 175.951, 173.104 174.385, 170.446 178.442 M 341.667 176.667 C 340.418 177.916, 340.995 184.751, 342.452 185.960 C 344.834 187.937, 347.465 186.793, 347.828 183.621 C 348.383 178.776, 347.225 176, 344.648 176 C 343.375 176, 342.033 176.300, 341.667 176.667 M 92.500 185.732 C 93.600 186.007, 94.831 186.742, 95.235 187.366 C 95.701 188.086, 95.975 187.861, 95.985 186.750 C 95.996 185.476, 95.252 185.032, 93.250 185.116 C 91.142 185.205, 90.967 185.349, 92.500 185.732 M 420.386 186.719 C 421.406 187.739, 428.026 187.851, 427.400 186.838 C 427.115 186.377, 425.259 186, 423.274 186 C 421.290 186, 419.990 186.324, 420.386 186.719 M 86.500 188 C 86.840 188.550, 87.316 189, 87.559 189 C 87.802 189, 88 188.550, 88 188 C 88 187.450, 87.523 187, 86.941 187 C 86.359 187, 86.160 187.450, 86.500 188 M 203.528 206.750 C 206.659 214.137, 207.312 217.677, 207.762 229.689 L 208.257 242.878 203.204 253.689 C 196.468 268.099, 191.864 279.197, 192.398 279.732 C 193.483 280.817, 201.977 275.896, 204.319 272.827 C 211.360 263.595, 214.956 250.303, 214.983 233.409 C 215.004 219.800, 213.459 214.078, 208.348 208.844 C 204.358 204.758, 202.306 203.866, 203.528 206.750 M 304.840 207.463 C 298.850 211.533, 297.500 216.597, 297.500 235 C 297.500 252.732, 299.012 258.999, 305.769 269.275 C 309.838 275.462, 312.418 277.686, 317.081 279.023 C 319.879 279.826, 320.052 279.729, 319.442 277.694 C 319.081 276.488, 315.406 268.197, 311.276 259.272 L 303.766 243.043 303.878 232.527 C 303.996 221.355, 305.091 214.659, 307.588 209.830 C 309.854 205.448, 308.950 204.670, 304.840 207.463 M 146.998 267.631 C 146.288 269.989, 143.258 274.649, 139.937 278.490 C 121.333 300.005, 109.829 323.130, 103.864 351 C 102.003 359.696, 101.619 364.592, 101.628 379.500 C 101.638 395.408, 101.947 398.816, 104.280 408.818 C 109.426 430.873, 118.140 447.140, 132.500 461.500 C 145.997 474.997, 160.066 482.740, 183 489.294 C 198.145 493.622, 197.285 493.590, 196.478 489.791 C 194.768 481.735, 189.484 470.437, 184.032 463.178 C 175.817 452.241, 174.045 448.244, 172.950 438.188 C 172.430 433.410, 171.793 428.581, 171.535 427.458 C 171.277 426.335, 167.190 421.160, 162.452 415.958 C 144.224 395.945, 137.656 381.991, 136.348 360.500 C 135.926 353.562, 136.230 347.285, 137.341 340 C 138.222 334.225, 139.418 324.100, 140 317.500 C 140.582 310.900, 141.518 302.575, 142.080 299 C 143.009 293.094, 146.819 276.852, 147.416 276.251 C 147.553 276.115, 147.455 293.458, 147.199 314.792 C 146.794 348.553, 146.954 354.666, 148.430 361.951 C 151.327 376.249, 156.532 385.854, 168.235 398.500 C 175.830 406.708, 177.659 410.063, 181.862 423.500 C 185.450 434.971, 186.628 436.767, 193.500 441.243 C 200.861 446.038, 202.220 449.547, 203.073 465.964 C 203.460 473.409, 204.528 482.720, 205.447 486.656 C 207.395 495.002, 205.895 494.242, 225.063 496.590 C 235.413 497.858, 243.439 498.111, 260 497.694 C 287.772 496.993, 309.143 493.634, 332.323 486.325 C 371.870 473.856, 393.417 449.480, 402.648 406.768 C 405.164 395.127, 405.185 366.025, 402.686 353.654 C 398.946 335.134, 389.815 312.558, 379.727 296.888 C 374.249 288.377, 363.690 275.431, 363.265 276.704 C 363.059 277.324, 364.685 286.981, 366.879 298.165 C 370.576 317.014, 371.928 326.432, 373.532 344.506 C 374.919 360.129, 370.206 382.773, 362.815 396 C 357.962 404.684, 350.210 413.652, 341 421.236 C 331.953 428.685, 310.177 443.511, 309.410 442.743 C 309.158 442.491, 313.596 439.077, 319.273 435.157 C 349.942 413.978, 362.035 397.175, 366.530 369.500 C 368.240 358.974, 368.486 330.231, 366.998 314.856 C 365.700 301.445, 360.873 271, 360.044 271 C 358.869 271, 344.909 290.952, 342.888 295.519 C 339.567 303.027, 338.643 316.039, 340.447 329.901 C 344.566 361.567, 340.196 372.197, 320.278 378.954 C 311.025 382.093, 309.073 384.397, 306.495 395.231 C 305.543 399.229, 304.107 403.550, 303.304 404.834 C 301.350 407.957, 296.146 410, 290.143 410 C 284.114 410, 281.854 411.756, 279.450 418.306 C 277.083 424.755, 274.109 426.197, 262 426.770 C 252.650 427.212, 241.466 425.866, 239.683 424.083 C 239.183 423.583, 238.536 421.064, 238.246 418.486 C 237.578 412.562, 234.564 410.498, 225.161 409.524 C 215.530 408.528, 214.591 407.637, 211.044 396.141 C 207.720 385.373, 204.984 381.591, 199.677 380.434 C 194.802 379.371, 185.792 375.151, 183.163 372.699 C 176.317 366.313, 174.113 354.743, 175.970 334.944 C 177.421 319.476, 176.848 309.883, 173.919 300.617 C 172.004 294.558, 169.115 290.201, 157.500 275.858 C 154.200 271.783, 150.767 267.335, 149.871 265.974 L 148.241 263.500 146.998 267.631 M 221.250 298.424 C 219.463 299.238, 218.001 300.038, 218.002 300.202 C 218.004 300.366, 220.816 300.554, 224.252 300.620 C 230.231 300.735, 231.830 301.211, 246.500 307.247 C 249.740 308.580, 253.832 309.323, 258.126 309.358 C 263.945 309.405, 265.771 308.906, 273.126 305.256 C 282.186 300.760, 289.170 298.778, 293.048 299.604 L 295.500 300.125 293 298.598 C 289.461 296.436, 280.675 296.634, 271.932 299.073 C 260.362 302.301, 255.615 302.475, 246.035 300.018 C 234.713 297.115, 225.437 296.519, 221.250 298.424 M 280.500 395.255 C 276.236 397.003, 273.293 397.308, 260.500 397.329 C 249.884 397.346, 243.329 396.857, 238.073 395.653 C 230.355 393.886, 228.525 394.295, 229.170 397.644 C 230.281 403.414, 266.892 406.086, 282 401.498 C 289.025 399.366, 290.583 397.958, 289.062 395.117 C 287.708 392.586, 286.980 392.598, 280.500 395.255" stroke="none" fill="black" fill-rule="evenodd"/>
</svg>